REM DIRINDEX 1\2\6,1\2\7,1\2\8,1\3\9,1\3\10,1\3\11,1\4\12,1\4\13,1\4\14,1\5\15,1\5\16,1\5\17,1\5\18
REM DIRNAME folder01,folder02,folder03,folder04,folder05,folder06,folder07,folder08,folder09,folder10,folder11,folder12,folder13,folder14,folder15,folder16,folder17,folder18
TITLE ""
FILE "" MP3
  TRACK 01 AUDIO
    TITLE "15:cjc019_6853"
    INDEX 01 00:00:00
  TRACK 02 AUDIO
    TITLE "0:"
    INDEX 01 00:07:17
  TRACK 03 AUDIO
    TITLE "16:cjc019_6854"
    INDEX 01 00:08:26
  TRACK 04 AUDIO
    TITLE "0:"
    INDEX 01 00:09:20
  TRACK 05 AUDIO
    TITLE "18:cjc019_6855"
    INDEX 01 00:10:04
  TRACK 06 AUDIO
    TITLE "0:"
    INDEX 01 00:13:67
  TRACK 07 AUDIO
    TITLE "17:cjc019_6856"
    INDEX 01 00:14:43
  TRACK 08 AUDIO
    TITLE "0:"
    INDEX 01 00:15:40
  TRACK 09 AUDIO
    TITLE "16:cjc019_6857"
    INDEX 01 00:17:23
  TRACK 10 AUDIO
    TITLE "0:"
    INDEX 01 00:18:42
  TRACK 11 AUDIO
    TITLE "18:cjc019_6858"
    INDEX 01 00:19:24
  TRACK 12 AUDIO
    TITLE "0:"
    INDEX 01 00:20:51
  TRACK 13 AUDIO
    TITLE "17:cjc019_6859"
    INDEX 01 00:21:19
  TRACK 14 AUDIO
    TITLE "0:"
    INDEX 01 00:22:40
  TRACK 15 AUDIO
    TITLE "16:cjc019_6860"
    INDEX 01 00:24:22
  TRACK 16 AUDIO
    TITLE "0:"
    INDEX 01 00:25:25
  TRACK 17 AUDIO
    TITLE "18:cjc019_6861"
    INDEX 01 00:26:13
  TRACK 18 AUDIO
    TITLE "0:"
    INDEX 01 00:30:26
  TRACK 19 AUDIO
    TITLE "17:cjc019_6862"
    INDEX 01 00:31:04
  TRACK 20 AUDIO
    TITLE "0:"
    INDEX 01 00:32:11
  TRACK 21 AUDIO
    TITLE "16:cjc019_6863"
    INDEX 01 00:33:62
  TRACK 22 AUDIO
    TITLE "0:"
    INDEX 01 00:35:08
  TRACK 23 AUDIO
    TITLE "18:cjc019_6864"
    INDEX 01 00:35:66
  TRACK 24 AUDIO
    TITLE "0:"
    INDEX 01 00:37:16
  TRACK 25 AUDIO
    TITLE "17:cjc019_6865"
    INDEX 01 00:37:67
  TRACK 26 AUDIO
    TITLE "0:"
    INDEX 01 00:39:15
  TRACK 27 AUDIO
    TITLE "16:cjc019_6866"
    INDEX 01 00:40:72
  TRACK 28 AUDIO
    TITLE "0:"
    INDEX 01 00:42:14
  TRACK 29 AUDIO
    TITLE "18:cjc019_6867"
    INDEX 01 00:42:65
  TRACK 30 AUDIO
    TITLE "0:"
    INDEX 01 00:45:65
  TRACK 31 AUDIO
    TITLE "17:cjc019_6868"
    INDEX 01 00:46:45
  TRACK 32 AUDIO
    TITLE "0:"
    INDEX 01 00:47:64
  TRACK 33 AUDIO
    TITLE "16:cjc019_6869"
    INDEX 01 00:49:49
  TRACK 34 AUDIO
    TITLE "0:"
    INDEX 01 00:50:62
  TRACK 35 AUDIO
    TITLE "18:cjc019_6870"
    INDEX 01 00:51:42
  TRACK 36 AUDIO
    TITLE "0:"
    INDEX 01 00:54:30
  TRACK 37 AUDIO
    TITLE "17:cjc019_6871"
    INDEX 01 00:55:06
  TRACK 38 AUDIO
    TITLE "0:"
    INDEX 01 00:56:20
  TRACK 39 AUDIO
    TITLE "16:cjc019_6872"
    INDEX 01 00:57:74
  TRACK 40 AUDIO
    TITLE "0:"
    INDEX 01 00:59:14
  TRACK 41 AUDIO
    TITLE "18:cjc019_6873"
    INDEX 01 00:59:65
  TRACK 42 AUDIO
    TITLE "0:"
    INDEX 01 01:02:01
  TRACK 43 AUDIO
    TITLE "17:cjc019_6874"
    INDEX 01 01:02:54
  TRACK 44 AUDIO
    TITLE "0:"
    INDEX 01 01:03:71
  TRACK 45 AUDIO
    TITLE "16:cjc019_6875"
    INDEX 01 01:05:50
  TRACK 46 AUDIO
    TITLE "0:"
    INDEX 01 01:07:02
  TRACK 47 AUDIO
    TITLE "18:cjc019_6876"
    INDEX 01 01:07:55
  TRACK 48 AUDIO
    TITLE "0:"
    INDEX 01 01:09:12
  TRACK 49 AUDIO
    TITLE "17:cjc019_6877"
    INDEX 01 01:09:71
  TRACK 50 AUDIO
    TITLE "0:"
    INDEX 01 01:11:25
  TRACK 51 AUDIO
    TITLE "16:cjc019_6878"
    INDEX 01 01:13:08
  TRACK 52 AUDIO
    TITLE "0:"
    INDEX 01 01:14:25
  TRACK 53 AUDIO
    TITLE "18:cjc019_6879"
    INDEX 01 01:15:09
  TRACK 54 AUDIO
    TITLE "0:"
    INDEX 01 01:20:20
  TRACK 55 AUDIO
    TITLE "17:cjc019_6880"
    INDEX 01 01:21:02
  TRACK 56 AUDIO
    TITLE "0:"
    INDEX 01 01:22:17
  TRACK 57 AUDIO
    TITLE "16:cjc019_6881"
    INDEX 01 01:24:00
  TRACK 58 AUDIO
    TITLE "0:"
    INDEX 01 01:25:37
  TRACK 59 AUDIO
    TITLE "18:cjc019_6882"
    INDEX 01 01:26:19
  TRACK 60 AUDIO
    TITLE "0:"
    INDEX 01 01:29:11
  TRACK 61 AUDIO
    TITLE "17:cjc019_6883"
    INDEX 01 01:29:62
  TRACK 62 AUDIO
    TITLE "0:"
    INDEX 01 01:31:26
  TRACK 63 AUDIO
    TITLE "16:cjc019_6884"
    INDEX 01 01:33:07
  TRACK 64 AUDIO
    TITLE "0:"
    INDEX 01 01:34:50
  TRACK 65 AUDIO
    TITLE "18:cjc019_6885"
    INDEX 01 01:35:27
  TRACK 66 AUDIO
    TITLE "0:"
    INDEX 01 01:36:52
  TRACK 67 AUDIO
    TITLE "17:cjc019_6886"
    INDEX 01 01:37:30
  TRACK 68 AUDIO
    TITLE "0:"
    INDEX 01 01:38:71
  TRACK 69 AUDIO
    TITLE "16:cjc019_6887"
    INDEX 01 01:40:50
  TRACK 70 AUDIO
    TITLE "0:"
    INDEX 01 01:41:65
  TRACK 71 AUDIO
    TITLE "18:cjc019_6888"
    INDEX 01 01:42:47
  TRACK 72 AUDIO
    TITLE "0:"
    INDEX 01 01:46:08
  TRACK 73 AUDIO
    TITLE "17:cjc019_6889"
    INDEX 01 01:46:63
  TRACK 74 AUDIO
    TITLE "0:"
    INDEX 01 01:48:01
  TRACK 75 AUDIO
    TITLE "16:cjc019_6890"
    INDEX 01 01:49:55
  TRACK 76 AUDIO
    TITLE "0:"
    INDEX 01 01:51:17
  TRACK 77 AUDIO
    TITLE "18:cjc019_6891"
    INDEX 01 01:51:72
  TRACK 78 AUDIO
    TITLE "0:"
    INDEX 01 01:55:24
  TRACK 79 AUDIO
    TITLE "17:cjc019_6892"
    INDEX 01 01:55:73
  TRACK 80 AUDIO
    TITLE "0:"
    INDEX 01 01:57:35
  TRACK 81 AUDIO
    TITLE "16:cjc019_6893"
    INDEX 01 01:59:16
  TRACK 82 AUDIO
    TITLE "0:"
    INDEX 01 02:00:27
  TRACK 83 AUDIO
    TITLE "18:cjc019_6894"
    INDEX 01 02:01:05
  TRACK 84 AUDIO
    TITLE "0:"
    INDEX 01 02:02:50
  TRACK 85 AUDIO
    TITLE "17:cjc019_6895"
    INDEX 01 02:03:24
  TRACK 86 AUDIO
    TITLE "0:"
    INDEX 01 02:04:35
  TRACK 87 AUDIO
    TITLE "16:cjc019_6896"
    INDEX 01 02:06:12
  TRACK 88 AUDIO
    TITLE "0:"
    INDEX 01 02:07:37
  TRACK 89 AUDIO
    TITLE "18:cjc019_6897"
    INDEX 01 02:08:13
  TRACK 90 AUDIO
    TITLE "0:"
    INDEX 01 02:09:28
  TRACK 91 AUDIO
    TITLE "17:cjc019_6898"
    INDEX 01 02:10:04
  TRACK 92 AUDIO
    TITLE "0:"
    INDEX 01 02:11:29
  TRACK 93 AUDIO
    TITLE "16:cjc019_6899"
    INDEX 01 02:13:12
  TRACK 94 AUDIO
    TITLE "0:"
    INDEX 01 02:14:31
  TRACK 95 AUDIO
    TITLE "18:cjc019_6900"
    INDEX 01 02:15:03
  TRACK 96 AUDIO
    TITLE "0:"
    INDEX 01 02:16:26
  TRACK 97 AUDIO
    TITLE "17:cjc019_6901"
    INDEX 01 02:17:04
  TRACK 98 AUDIO
    TITLE "0:"
    INDEX 01 02:18:25
  TRACK 99 AUDIO
    TITLE "16:cjc019_6902"
    INDEX 01 02:20:03
  TRACK 100 AUDIO
    TITLE "0:"
    INDEX 01 02:21:26
  TRACK 101 AUDIO
    TITLE "18:cjc019_6903"
    INDEX 01 02:22:00
  TRACK 102 AUDIO
    TITLE "0:"
    INDEX 01 02:25:29
  TRACK 103 AUDIO
    TITLE "17:cjc019_6904"
    INDEX 01 02:26:07
  TRACK 104 AUDIO
    TITLE "0:"
    INDEX 01 02:27:30
